# xmcd
# 
# Track frame offsets:
#     150
#     15930
#     33316
#     51163
#     67155
#     81273
#     97746
#     116057
#     129375
#     143765
# 
# Disc length: 2223
# 
# Revision: 2
# Processed by: cddbd v1.5.2PL0 Copyright (c) Steve Scherf et al.
# Submitted via: fre:ac v1.0.31
# 
DISCID=7d08ad0a
DTITLE=Nikki Lane - Highway Queen
DYEAR=2017
DGENRE=Country
TTITLE0=700,000 Rednecks
TTITLE1=Highway Queen
TTITLE2=Lay You Down
TTITLE3=Jackpot
TTITLE4=Companion
TTITLE5=Big Mouth
TTITLE6=Foolish Heart
TTITLE7=Send the Sun
TTITLE8=Muddy Waters
TTITLE9=Forever Lasts Forever
EXTD=
EXTT0=
EXTT1=
EXTT2=
EXTT3=
EXTT4=
EXTT5=
EXTT6=
EXTT7=
EXTT8=
EXTT9=
PLAYORDER=
